<svg width="30" height="30" viewBox="0 0 30 30" fill="none" xmlns="http://www.w3.org/2000/svg">
<path d="M19.1111 18.3461C18.9277 18.2861 17.7681 17.7635 18.4927 15.5608H18.4823C20.3711 13.6154 21.8146 10.485 21.8146 7.40307C21.8146 2.66422 18.6634 0.179993 15.0011 0.179993C11.3365 0.179993 8.20267 2.66307 8.20267 7.40307C8.20267 10.4977 9.63805 13.6408 11.5384 15.5815C12.2792 17.5246 10.9546 18.2458 10.6777 18.3461C6.84229 19.7342 2.34229 22.2623 2.34229 24.7581V25.6938C2.34229 29.0942 8.93536 29.8673 15.0369 29.8673C21.1477 29.8673 27.6577 29.0942 27.6577 25.6938V24.7581C27.6577 22.1873 23.1357 19.6788 19.1111 18.3461ZM12.7465 28.395C12.7465 25.4538 14.6192 21.4835 14.6192 21.4835L13.3234 20.4669C13.3234 19.4954 15 18.4788 15 18.4788C15 18.4788 16.6719 19.5115 16.6719 20.4669L15.3807 21.4835C15.3807 21.4835 17.2534 25.4388 17.2534 28.4273C17.2534 28.8958 12.7465 28.7873 12.7465 28.395Z" fill="black"/>
</svg>
